<svg xmlns="http://www.w3.org/2000/svg" xmlns:xlink="http://www.w3.org/1999/xlink" width="500" zoomAndPan="magnify" viewBox="0 0 375 374.999991" height="500" preserveAspectRatio="xMidYMid meet" version="1.0"><defs><clipPath id="b07f115b9b"><path d="M 71.425781 38.019531 L 251.484375 38.019531 L 251.484375 218 L 71.425781 218 Z M 71.425781 38.019531 " clip-rule="nonzero"/></clipPath><clipPath id="56df37a1fb"><path d="M 70.539062 128.09375 C 70.539062 152.21875 80.121094 175.355469 97.179688 192.414062 C 114.238281 209.472656 137.375 219.054688 161.5 219.054688 C 185.625 219.054688 208.761719 209.472656 225.820312 192.414062 C 242.878906 175.355469 252.460938 152.21875 252.460938 128.09375 C 252.460938 103.96875 242.878906 80.832031 225.820312 63.773438 C 208.761719 46.714844 185.625 37.132812 161.5 37.132812 C 137.375 37.132812 114.238281 46.714844 97.179688 63.773438 C 80.121094 80.832031 70.539062 103.96875 70.539062 128.09375 Z M 70.539062 128.09375 " clip-rule="nonzero"/></clipPath><clipPath id="8d65cdf152"><path d="M 161.5 38.195312 C 185.34375 38.195312 208.207031 47.667969 225.066406 64.527344 C 241.925781 81.386719 251.398438 104.25 251.398438 128.09375 C 251.398438 151.9375 241.925781 174.800781 225.066406 191.660156 C 208.207031 208.519531 185.34375 217.992188 161.5 217.992188 C 137.65625 217.992188 114.792969 208.519531 97.933594 191.660156 C 81.074219 174.800781 71.601562 151.9375 71.601562 128.09375 C 71.601562 104.25 81.074219 81.386719 97.933594 64.527344 C 114.792969 47.667969 137.65625 38.195312 161.5 38.195312 Z M 161.5 38.195312 " clip-rule="nonzero"/></clipPath><clipPath id="2886339872"><path d="M 70.539062 37.132812 L 252.371094 37.132812 L 252.371094 218.964844 L 70.539062 218.964844 Z M 70.539062 37.132812 " clip-rule="nonzero"/></clipPath><clipPath id="f77d397328"><path d="M 70.539062 128.09375 C 70.539062 152.21875 80.121094 175.355469 97.179688 192.414062 C 114.238281 209.472656 137.375 219.054688 161.5 219.054688 C 185.625 219.054688 208.761719 209.472656 225.820312 192.414062 C 242.878906 175.355469 252.460938 152.21875 252.460938 128.09375 C 252.460938 103.96875 242.878906 80.832031 225.820312 63.773438 C 208.761719 46.714844 185.625 37.132812 161.5 37.132812 C 137.375 37.132812 114.238281 46.714844 97.179688 63.773438 C 80.121094 80.832031 70.539062 103.96875 70.539062 128.09375 Z M 70.539062 128.09375 " clip-rule="nonzero"/></clipPath><clipPath id="d8c3d8f065"><path d="M 70.539062 128.089844 C 70.539062 152.214844 80.121094 175.347656 97.179688 192.40625 C 114.238281 209.464844 137.371094 219.046875 161.496094 219.046875 C 185.621094 219.046875 208.753906 209.464844 225.8125 192.40625 C 242.871094 175.347656 252.453125 152.214844 252.453125 128.089844 C 252.453125 103.964844 242.871094 80.832031 225.8125 63.773438 C 208.753906 46.714844 185.621094 37.132812 161.496094 37.132812 C 137.371094 37.132812 114.238281 46.714844 97.179688 63.773438 C 80.121094 80.832031 70.539062 103.964844 70.539062 128.089844 Z M 70.539062 128.089844 " clip-rule="nonzero"/></clipPath><clipPath id="93e4be6ba2"><path d="M 2 29.386719 L 319 29.386719 L 319 335.199219 L 2 335.199219 Z M 2 29.386719 " clip-rule="nonzero"/></clipPath><clipPath id="cb54ea1ec1"><rect x="0" width="320" y="0" height="336"/></clipPath></defs><rect x="-37.5" width="450" fill="#ffffff" y="-37.499999" height="449.999989" fill-opacity="1"/><rect x="-37.5" width="450" fill="#1e8e3d" y="-37.499999" height="449.999989" fill-opacity="1"/><g transform="matrix(1, 0, 0, 1, 26, 2)"><g clip-path="url(#cb54ea1ec1)"><g clip-path="url(#b07f115b9b)"><g clip-path="url(#56df37a1fb)"><g clip-path="url(#8d65cdf152)"><path fill="#ffffff" d="M 244.410156 146.269531 C 244.375 146.421875 244.339844 146.566406 244.304688 146.707031 C 243.972656 148.199219 243.59375 149.691406 243.179688 151.160156 C 243.121094 151.351562 243.074219 151.539062 243.015625 151.730469 C 242.5625 153.292969 242.066406 154.84375 241.535156 156.359375 C 241.535156 156.371094 241.523438 156.382812 241.523438 156.394531 C 240.375 159.617188 239.035156 162.753906 237.53125 165.789062 C 237.519531 165.8125 237.507812 165.824219 237.507812 165.847656 C 236.785156 167.292969 236.015625 168.714844 235.210938 170.121094 C 235.136719 170.242188 235.078125 170.347656 235.007812 170.464844 C 234.203125 171.875 233.351562 173.261719 232.460938 174.609375 C 232.460938 174.609375 232.460938 174.609375 232.449219 174.609375 L 202.558594 179.335938 L 187.765625 159.808594 L 196.695312 124.0625 L 227.5 113.792969 L 246.011719 136 C 245.679688 139.496094 245.144531 142.917969 244.410156 146.269531 Z M 181.6875 210.542969 C 180.160156 210.910156 178.609375 211.242188 177.058594 211.527344 C 176.832031 211.574219 176.621094 211.609375 176.394531 211.644531 C 175.066406 211.882812 173.742188 212.082031 172.390625 212.261719 C 172.035156 212.308594 171.679688 212.355469 171.324219 212.390625 C 170.070312 212.546875 168.816406 212.652344 167.558594 212.746094 C 167.15625 212.769531 166.765625 212.816406 166.375 212.828125 C 164.753906 212.925781 163.128906 212.984375 161.496094 212.984375 C 159.992188 212.984375 158.511719 212.949219 157.03125 212.867188 C 156.839844 212.855469 156.675781 212.828125 156.496094 212.828125 C 155.171875 212.746094 153.855469 212.652344 152.554688 212.511719 C 152.507812 212.511719 152.460938 212.5 152.410156 212.488281 C 149.511719 212.179688 146.667969 211.726562 143.859375 211.125 L 125.929688 183.054688 L 140.378906 163.773438 L 182.625 163.773438 L 197.308594 183.171875 Z M 90.542969 174.609375 C 89.640625 173.261719 88.789062 171.875 87.984375 170.464844 C 87.914062 170.347656 87.851562 170.242188 87.78125 170.121094 C 86.976562 168.714844 86.207031 167.292969 85.484375 165.847656 C 85.484375 165.824219 85.472656 165.8125 85.460938 165.789062 C 83.957031 162.753906 82.617188 159.617188 81.46875 156.394531 C 81.46875 156.382812 81.46875 156.371094 81.457031 156.359375 C 80.925781 154.84375 80.425781 153.292969 79.976562 151.730469 C 79.917969 151.539062 79.871094 151.351562 79.8125 151.160156 C 79.398438 149.691406 79.019531 148.199219 78.6875 146.707031 C 78.652344 146.566406 78.613281 146.421875 78.578125 146.269531 C 77.84375 142.917969 77.3125 139.496094 76.980469 136 L 95.492188 113.792969 L 126.296875 124.0625 L 135.226562 159.820312 L 120.578125 179.359375 Z M 94.199219 76.429688 C 94.4375 76.109375 94.675781 75.8125 94.921875 75.503906 C 95.917969 74.25 96.949219 73.007812 98.015625 71.808594 C 98.132812 71.679688 98.238281 71.550781 98.347656 71.417969 C 99.578125 70.058594 100.84375 68.730469 102.160156 67.453125 C 102.3125 67.308594 102.46875 67.167969 102.621094 67.011719 C 103.867188 65.816406 105.144531 64.644531 106.460938 63.53125 C 106.566406 63.4375 106.660156 63.351562 106.753906 63.269531 C 109.691406 60.796875 112.785156 58.507812 116.039062 56.449219 C 116.074219 56.425781 116.113281 56.390625 116.160156 56.367188 C 119.453125 54.28125 122.898438 52.410156 126.488281 50.789062 L 158.25 63.367188 L 158.25 93.992188 L 128.371094 117.894531 L 97.351562 107.554688 L 91.050781 80.761719 C 92.058594 79.28125 93.113281 77.839844 94.199219 76.429688 Z M 164.742188 63.351562 L 196.351562 50.714844 C 199.964844 52.351562 203.433594 54.222656 206.75 56.320312 C 206.773438 56.332031 206.808594 56.355469 206.832031 56.367188 C 210.101562 58.449219 213.238281 60.734375 216.1875 63.234375 C 216.273438 63.304688 216.355469 63.378906 216.4375 63.449219 C 217.777344 64.585938 219.054688 65.757812 220.320312 66.964844 C 220.476562 67.121094 220.640625 67.273438 220.796875 67.425781 C 222.109375 68.707031 223.390625 70.035156 224.621094 71.394531 C 224.726562 71.511719 224.824219 71.632812 224.929688 71.75 C 226.007812 72.96875 227.050781 74.214844 228.054688 75.492188 C 228.304688 75.800781 228.542969 76.097656 228.777344 76.417969 C 229.867188 77.828125 230.933594 79.269531 231.941406 80.761719 L 225.640625 107.554688 L 194.621094 117.894531 L 164.742188 93.992188 Z M 161.496094 37.132812 C 111.339844 37.132812 70.539062 77.933594 70.539062 128.089844 C 70.539062 178.246094 111.339844 219.046875 161.496094 219.046875 C 211.652344 219.046875 252.453125 178.246094 252.453125 128.089844 C 252.453125 77.933594 211.652344 37.132812 161.496094 37.132812 " fill-opacity="1" fill-rule="nonzero"/></g></g></g><g clip-path="url(#2886339872)"><g clip-path="url(#f77d397328)"><g clip-path="url(#d8c3d8f065)"><path stroke-linecap="butt" transform="matrix(0.886987, 0, 0, 0.886987, 70.53791, 37.132071)" fill="none" stroke-linejoin="miter" d="M 0.00129916 102.546856 C 0.00129916 129.745663 10.804193 155.825867 30.036251 175.057925 C 49.268309 194.289983 75.348513 205.092877 102.54732 205.092877 C 129.746127 205.092877 155.82633 194.289983 175.058388 175.057925 C 194.290446 155.825867 205.09334 129.745663 205.09334 102.546856 C 205.09334 75.348049 194.290446 49.267846 175.058388 30.035788 C 155.82633 10.80373 129.746127 0.000835581 102.54732 0.000835581 C 75.348513 0.000835581 49.268309 10.80373 30.036251 30.035788 C 10.804193 49.267846 0.00129916 75.348049 0.00129916 102.546856 Z M 0.00129916 102.546856 " stroke="#ffffff" stroke-width="20.293407" stroke-opacity="1" stroke-miterlimit="4"/></g></g></g><g clip-path="url(#93e4be6ba2)"><path fill="#ffffff" d="M 66.683594 173.898438 C 76.796875 200.601562 100.972656 216.777344 127.746094 223.738281 L 132.191406 259.726562 C 89.667969 263.507812 74.816406 294.902344 64.25 324.164062 C 63.339844 326.679688 63.707031 329.484375 65.246094 331.675781 C 66.785156 333.867188 69.292969 335.171875 71.972656 335.171875 L 247.117188 335.171875 C 249.851562 335.171875 252.410156 333.804688 253.9375 331.542969 C 255.464844 329.269531 255.761719 326.394531 254.722656 323.859375 L 253.90625 321.871094 C 241.503906 291.445312 229.761719 262.664062 186.890625 259.695312 L 191.335938 223.757812 C 218.070312 216.796875 242.226562 200.664062 252.367188 174.019531 C 300.699219 171.972656 309.914062 125.238281 318.832031 79.996094 C 319.3125 77.589844 318.679688 75.09375 317.121094 73.1875 C 315.558594 71.292969 313.234375 70.191406 310.78125 70.191406 L 273.914062 70.191406 L 280.019531 39.226562 C 280.5 36.820312 279.867188 34.324219 278.308594 32.417969 C 276.746094 30.523438 274.425781 29.421875 271.96875 29.421875 L 47.125 29.421875 C 44.667969 29.421875 42.34375 30.523438 40.785156 32.417969 C 39.226562 34.3125 38.59375 36.8125 39.074219 39.226562 L 45.179688 70.191406 L 10.238281 70.191406 C 7.78125 70.191406 5.457031 71.292969 3.898438 73.1875 C 2.339844 75.082031 1.707031 77.582031 2.1875 79.996094 C 10.984375 124.617188 20.074219 170.699219 66.695312 173.910156 Z M 234.867188 318.730469 L 83.941406 318.730469 C 94.90625 292.324219 107.882812 277.6875 135.59375 275.933594 L 183.578125 275.933594 C 214.410156 277.277344 224.246094 293.535156 234.867188 318.730469 Z M 144.6875 226.910156 C 149.648438 227.488281 154.625 227.773438 159.535156 227.773438 C 164.449219 227.773438 169.421875 227.488281 174.398438 226.910156 L 170.371094 259.511719 L 148.710938 259.511719 Z M 300.75 86.601562 C 292.3125 127.339844 283.496094 153.085938 256.78125 157.089844 L 270.683594 86.601562 Z M 261.980469 45.832031 L 239.738281 158.621094 C 232.554688 195.035156 194.28125 211.34375 159.546875 211.34375 C 124.8125 211.34375 86.550781 195.035156 79.363281 158.621094 L 57.113281 45.832031 Z M 48.410156 86.601562 L 62.25 156.753906 C 37.074219 151.78125 28.492188 126.308594 20.269531 86.601562 L 48.417969 86.601562 Z M 48.410156 86.601562 " fill-opacity="1" fill-rule="nonzero"/></g></g></g></svg>